<?xml version="1.0" encoding="UTF-8" standalone="no"?>
<!DOCTYPE svg PUBLIC "-//W3C//DTD SVG 1.1//EN" "http://www.w3.org/Graphics/SVG/1.1/DTD/svg11.dtd">
<svg width="100%" height="100%" viewBox="0 0 377 95" version="1.1" xmlns="http://www.w3.org/2000/svg" xmlns:xlink="http://www.w3.org/1999/xlink" xml:space="preserve" xmlns:serif="http://www.serif.com/" style="fill-rule:evenodd;clip-rule:evenodd;stroke-linejoin:round;stroke-miterlimit:2;">
    <g id="Layer1">
        <g transform="matrix(7.45399,0,0,2.5573,-784.795,-84.8593)">
            <rect x="105.285" y="33.183" width="50.475" height="36.85"/>
        </g>
        <g id="Layer2">
        </g>
    </g>
    <g id="g4181" transform="matrix(1,0,0,1,-0.93811,-1.061)">
        <path id="path6" d="M95.173,1.061L62.328,1.116L29.484,1.172L29.492,17.967C29.5,33.791 29.524,34.809 29.902,35.541C30.396,36.498 31.741,37.298 32.863,37.303C33.416,37.305 37.674,35.856 45.273,33.078C45.273,33.078 52.836,29.748 56.843,28.85C57.489,28.705 58.82,28.671 58.82,28.671C59.432,28.654 60.976,28.936 62.003,29.426C64.533,30.633 66.155,32.794 66.603,35.557C66.755,36.497 66.834,46.844 66.835,66.137L66.837,95.297L95.173,95.297L95.173,1.061L95.173,1.061ZM0.939,1.063L0.939,95.297L26.695,95.243L52.449,95.186L52.505,84.217C52.536,78.183 52.477,73.162 52.374,73.059C52.27,72.955 46.067,75.095 38.479,77.854C25.616,82.531 24.676,82.839 23.233,82.85C20.511,82.87 18.073,81.604 16.591,79.399C15.123,77.216 15.216,79.954 15.216,38.585L15.216,1.064L0.938,1.064L0.939,1.063ZM51.728,44.116C51.264,44.115 30.151,51.77 29.769,52.077C29.559,52.246 29.496,54.047 29.496,59.727C29.496,66.474 29.53,67.177 29.867,67.366C30.071,67.48 30.342,67.541 30.47,67.501C32.576,66.842 50.51,60.21 51.011,59.905C51.399,59.669 51.893,59.073 52.128,58.553C52.513,57.707 52.55,57.062 52.554,51.296C52.559,44.856 52.474,44.117 51.728,44.116L51.728,44.116Z" style="fill:white;fill-rule:nonzero;"/>
        <g id="g4177">
            <path id="path8" d="M175.56,47.52C171.068,46.503 167.716,43.16 166.42,38.405C165.838,36.268 165.887,31.409 166.513,29.113C167.839,24.253 171.049,20.954 175.556,19.821C176.596,19.559 177.631,19.488 179.4,19.555C181.573,19.639 181.983,19.723 183.408,20.38C186.162,21.65 188.109,24.136 188.879,27.365C189.24,28.878 189.385,33.061 189.092,33.534C188.975,33.724 186.614,33.792 180.05,33.792L171.167,33.792L171.167,34.954C171.167,37.158 172.196,39.977 173.575,41.547C174.52,42.623 176.534,43.62 178.321,43.895C180.389,44.213 182.937,43.764 185.049,42.711C185.906,42.283 186.694,41.987 186.8,42.052C187.167,42.279 188.329,44.823 188.208,45.136C188.051,45.547 185.262,46.858 183.577,47.313C181.718,47.816 177.362,47.928 175.56,47.52L175.56,47.52ZM184.176,28.85C184.091,27.026 183.141,25.03 181.945,24.163C179.493,22.387 175.364,22.871 173.346,25.17C172.446,26.194 171.576,28.088 171.437,29.324L171.329,30.285L184.237,30.168L184.176,28.85L184.176,28.85ZM266.829,47.541C260.427,46.063 257.054,41.378 257.054,33.965C257.054,30.75 257.458,28.808 258.644,26.324C260.244,22.972 263.4,20.446 266.893,19.72C268.74,19.337 272.496,19.557 273.968,20.135C276.616,21.175 278.777,23.58 279.688,26.501C280.169,28.043 280.517,32.168 280.255,33.213L280.11,33.792L271.211,33.792C263.179,33.792 262.298,33.827 262.174,34.151C261.973,34.675 262.457,37.495 262.996,38.934C263.601,40.552 265.456,42.579 266.898,43.199C269.854,44.471 273.465,44.196 276.565,42.463C277.1,42.164 277.622,41.919 277.727,41.919C277.831,41.919 278.261,42.606 278.684,43.445C279.412,44.891 279.432,44.99 279.072,45.35C278.564,45.858 276.348,46.848 274.728,47.292C272.909,47.79 268.507,47.929 266.828,47.541L266.829,47.541ZM275.234,28.891C275.039,26.461 273.933,24.598 272.101,23.615C271.401,23.24 270.842,23.143 269.355,23.141C267.206,23.138 265.91,23.632 264.58,24.962C263.683,25.859 262.627,27.998 262.416,29.344L262.269,30.277L275.346,30.277L275.234,28.891L275.234,28.891ZM292.922,47.519C290.674,47.03 288.746,45.975 287.141,44.355C284.448,41.637 283.362,38.634 283.362,33.902C283.362,29 284.515,25.86 287.358,23.023C289.147,21.237 290.574,20.411 292.899,19.816C294.862,19.313 298.667,19.489 300.326,20.159C304.141,21.699 306.314,25.212 306.611,30.321C306.694,31.737 306.655,32.809 306.506,33.186L306.27,33.787L288.575,33.902L288.508,34.808C288.351,36.963 289.563,40.162 291.131,41.73C293.873,44.473 299.198,44.745 303.098,42.342C303.474,42.11 303.881,41.92 304.001,41.92C304.291,41.92 305.598,44.391 305.598,44.941C305.598,45.674 302.266,47.103 299.352,47.62C297.603,47.93 294.594,47.883 292.922,47.519L292.922,47.519ZM301.644,29.422C301.644,28.129 300.864,25.877 300.092,24.944C298.985,23.606 297.898,23.161 295.714,23.149C294.098,23.14 293.676,23.222 292.586,23.758C290.613,24.726 289.08,26.956 288.755,29.33L288.625,30.278L301.644,30.278L301.644,29.422L301.644,29.422ZM235.134,47.191C233.688,46.885 232.061,45.891 230.941,44.63C230.381,44 228.638,41.455 227.068,38.974C225.362,36.279 224.074,34.461 223.868,34.457C223.678,34.454 222.662,35.331 221.609,36.407L219.695,38.363L219.819,43.346L220.753,43.511C221.266,43.602 222.106,43.751 222.62,43.842L223.553,44.008L223.553,47.081L210.813,47.081L210.813,44.006L211.857,43.841L213.943,43.512L214.987,43.347L215.043,27.116C215.081,16.294 215.025,10.795 214.875,10.615C214.748,10.462 213.791,10.277 212.677,10.19L210.703,10.035L210.703,8.538C210.703,7.339 210.777,7.012 211.072,6.899C211.274,6.821 213.328,6.697 215.636,6.622L219.831,6.487L219.744,19.364C219.697,26.447 219.723,32.411 219.803,32.62C219.918,32.92 220.868,32.08 224.332,28.62C226.743,26.212 228.715,24.122 228.715,23.978C228.715,23.829 228.261,23.656 227.672,23.58C226.053,23.372 225.97,23.279 225.97,21.687L225.97,20.283L232.215,20.224C237.065,20.179 238.499,20.228 238.637,20.444C238.939,20.921 238.844,22.754 238.498,23.099C238.3,23.297 237.478,23.481 236.356,23.578L234.536,23.734L230.857,27.382C228.833,29.388 227.178,31.12 227.178,31.231C227.178,31.543 232.129,39.205 233.477,40.979C235.115,43.134 235.818,43.539 238.161,43.677L240.028,43.786L240.22,45.285C240.349,46.287 240.336,46.861 240.183,47.014C239.878,47.319 236.325,47.443 235.134,47.191L235.134,47.191ZM133.254,46.91C133.187,46.735 133.163,46.011 133.199,45.299L133.266,44.006L134.145,43.848C134.628,43.761 135.593,43.63 136.288,43.557L137.553,43.425L137.44,13.473L135.492,13.217C134.421,13.076 133.452,12.868 133.339,12.755C133.226,12.642 133.164,11.917 133.2,11.144L133.266,9.738L142.272,9.748C152.225,9.758 153.139,9.853 155.868,11.155C160.095,13.172 161.75,18.34 159.642,22.943C158.955,24.444 157.528,25.822 155.816,26.638C155.072,26.992 154.464,27.352 154.464,27.437C154.464,27.523 155.088,27.813 155.852,28.082C159.889,29.508 162.152,32.615 162.152,36.733C162.152,41.812 159.423,45.07 153.915,46.569C152.267,47.018 151.57,47.053 142.767,47.137C134.723,47.214 133.359,47.181 133.254,46.909L133.254,46.91ZM152.596,42.685C155.677,41.567 156.88,39.835 156.88,36.518C156.88,32.997 155.192,30.839 151.718,29.917C150.147,29.5 143.712,29.259 143.087,29.594C142.603,29.852 142.602,29.872 142.602,36.399C142.602,39.999 142.676,43.019 142.767,43.111C142.857,43.203 144.859,43.235 147.215,43.181C150.622,43.103 151.723,43.002 152.597,42.685L152.596,42.685ZM151.245,25.375C152.809,24.876 153.921,24.051 154.608,22.879C155.125,21.997 155.228,21.544 155.296,19.854C155.369,18.021 155.327,17.772 154.755,16.66C153.502,14.224 151.566,13.539 146.198,13.632L142.712,13.693L142.65,19.294C142.616,22.375 142.646,25.13 142.716,25.418L142.844,25.94L146.512,25.827C148.926,25.753 150.544,25.598 151.245,25.375L151.245,25.375ZM192.118,46.895C192.054,46.729 192.032,46.01 192.069,45.299L192.135,44.006L193.179,43.841L195.266,43.511L196.309,43.347L196.366,33.707C196.407,26.773 196.354,23.983 196.175,23.767C196.005,23.563 195.395,23.466 194.25,23.464C193.329,23.462 192.446,23.379 192.289,23.279C192.09,23.154 192.023,22.669 192.069,21.698L192.135,20.299L192.904,20.141C193.327,20.054 195.353,19.951 197.407,19.913L201.141,19.843L201.162,21.877C201.174,22.996 201.231,23.96 201.29,24.019C201.349,24.078 201.773,23.582 202.231,22.916C203.194,21.518 204.741,20.304 206.187,19.811C207.362,19.411 210.516,19.465 210.944,19.893C211.153,20.102 211.123,20.542 210.805,21.934C210.271,24.274 210.161,24.41 209.053,24.101C207.084,23.554 205.011,24.292 203.072,26.231C201.037,28.266 201.041,28.244 201.04,36.098C201.039,39.843 201.116,43.03 201.211,43.179C201.31,43.336 202.301,43.546 203.561,43.676C204.759,43.801 205.821,43.985 205.922,44.086C206.023,44.187 206.076,44.902 206.04,45.675L205.974,47.081L199.104,47.139C193.435,47.187 192.213,47.144 192.118,46.895L192.118,46.895ZM242.681,46.843C242.488,46.341 242.523,44.494 242.732,44.165C242.869,43.95 245.613,43.47 246.777,43.458C246.869,43.457 246.918,36.018 246.887,26.927L246.831,10.398L244.964,10.232C243.937,10.141 242.973,10.021 242.822,9.965C242.424,9.817 242.455,7.344 242.859,7.008C243.071,6.832 244.554,6.736 247.487,6.707L251.803,6.664L251.757,43.424L253.028,43.563C253.727,43.639 254.645,43.774 255.068,43.862L255.837,44.022L255.966,47.192L249.39,47.192C243.597,47.192 242.798,47.151 242.681,46.844L242.681,46.843Z" style="fill:white;fill-rule:nonzero;"/>
            <path id="path4175" d="M214.69,92.327C213.252,91.924 211.57,91.033 210.9,90.32L210.406,89.793L211.542,88.657L212.66,89.542C214.201,90.759 215.681,91.235 217.852,91.211C221.853,91.166 223.893,88.833 223.893,84.306C223.893,83.024 223.809,82.337 223.652,82.337C223.519,82.337 222.96,82.734 222.408,83.22C219.643,85.653 214.663,85.12 211.947,82.1C209.407,79.275 209.407,75.075 211.947,72.25C214.662,69.23 219.643,68.696 222.408,71.13C222.959,71.616 223.514,72.013 223.639,72.013C223.765,72.013 223.898,71.593 223.935,71.079C224,70.172 224.024,70.146 224.771,70.146L225.54,70.146L225.601,77.395C225.637,81.783 225.568,85.25 225.425,86.181C224.991,89.013 223.147,91.445 220.856,92.207C219.547,92.642 216.056,92.71 214.69,92.327L214.69,92.327ZM220.557,82.682C225.148,80.336 225.109,74.024 220.488,71.622C219.603,71.162 219.091,71.054 217.852,71.061C216.02,71.072 215.011,71.467 213.683,72.691C212.309,73.958 211.734,75.281 211.734,77.175C211.734,79.075 212.309,80.392 213.7,81.674C215.664,83.484 218.245,83.864 220.557,82.682L220.557,82.682ZM141.44,85.064C138.345,84.315 135.54,82.051 134.202,79.223C133.22,77.145 132.882,75.64 132.882,73.331C132.882,69.77 134.028,66.8 136.267,64.562C138.483,62.346 141.307,61.247 144.772,61.252C147.56,61.257 149.852,62.068 151.46,63.619C152.442,64.567 152.473,64.809 151.687,65.382L151.09,65.817L150.029,64.863C148.203,63.221 145.582,62.532 142.924,62.995C137.974,63.857 134.711,67.963 134.711,73.331C134.711,78.789 138.055,82.902 143.132,83.692C145.906,84.123 148.523,83.322 150.666,81.385L151.793,80.366L152.368,80.819C152.684,81.067 152.943,81.403 152.943,81.564C152.943,81.995 150.891,83.766 149.752,84.317C147.472,85.421 144.149,85.72 141.44,85.064L141.44,85.064ZM161.261,84.861C157.829,83.762 155.841,80.687 156.065,76.823C156.242,73.764 157.717,71.537 160.401,70.278C161.459,69.782 161.909,69.707 163.816,69.707C165.723,69.707 166.173,69.782 167.231,70.278C168.969,71.093 169.963,72.058 170.786,73.729C171.453,75.084 171.504,75.347 171.504,77.395C171.504,79.442 171.453,79.705 170.786,81.06C169.489,83.695 167.333,85.014 164.146,85.123C162.934,85.165 161.921,85.073 161.261,84.861L161.261,84.861ZM166.717,83.089C168.85,82.053 169.932,80.131 169.921,77.395C169.907,73.523 167.512,71.028 163.824,71.043C160.555,71.057 158.42,72.897 157.739,76.288C157.439,77.785 157.871,79.851 158.769,81.207C160.399,83.67 163.843,84.485 166.717,83.089ZM196.765,84.899C195.267,84.402 194.553,83.934 193.498,82.76C190.806,79.767 191.032,74.25 193.956,71.554C195.529,70.104 196.631,69.706 199.072,69.707C200.907,69.708 201.291,69.778 202.257,70.292C204.467,71.466 205.784,73.587 205.918,76.186L205.991,77.614L199.731,77.724L193.47,77.833L193.396,78.36C193.176,79.914 194.708,82.323 196.517,83.268C197.213,83.631 197.808,83.741 199.072,83.739C200.909,83.736 202.278,83.225 203.493,82.09C204.287,81.349 204.58,81.309 205.092,81.874C205.451,82.271 205.436,82.328 204.781,83.074C203.662,84.348 201.951,85.025 199.621,85.115C198.365,85.163 197.323,85.084 196.765,84.899L196.765,84.899ZM204.13,76.07C204.84,75.214 203.186,72.514 201.382,71.586C199.941,70.844 197.854,70.815 196.517,71.518C194.787,72.428 193.032,75.013 193.434,76.06C193.631,76.573 203.705,76.582 204.13,76.07L204.13,76.07ZM235.206,84.899C233.708,84.402 232.993,83.934 231.938,82.76C229.247,79.767 229.472,74.25 232.396,71.554C233.969,70.104 235.071,69.706 237.512,69.707C239.347,69.708 239.731,69.778 240.697,70.292C242.907,71.466 244.225,73.587 244.358,76.186L244.431,77.614L238.171,77.724L231.911,77.833L231.836,78.36C231.617,79.914 233.149,82.323 234.958,83.268C235.654,83.631 236.248,83.741 237.512,83.739C239.35,83.736 240.719,83.225 241.934,82.09C242.728,81.349 243.021,81.309 243.532,81.874C243.891,82.271 243.877,82.328 243.222,83.074C242.103,84.348 240.391,85.025 238.061,85.115C236.806,85.163 235.764,85.084 235.206,84.899L235.206,84.899ZM242.57,76.07C243.28,75.214 241.626,72.514 239.822,71.586C238.381,70.844 236.294,70.815 234.958,71.518C233.227,72.428 231.472,75.013 231.874,76.06C232.071,76.573 242.145,76.582 242.57,76.07L242.57,76.07ZM262.085,84.861C258.652,83.762 256.665,80.688 256.888,76.823C257.065,73.764 258.541,71.537 261.225,70.278C262.282,69.782 262.732,69.707 264.64,69.707C266.547,69.707 266.997,69.782 268.054,70.278C269.793,71.093 270.786,72.058 271.609,73.73C272.276,75.084 272.328,75.347 272.328,77.395C272.328,79.442 272.276,79.705 271.609,81.06C270.312,83.695 268.156,85.014 264.969,85.123C263.757,85.165 262.745,85.073 262.085,84.861L262.085,84.861ZM267.541,83.089C269.674,82.053 270.755,80.131 270.745,77.395C270.731,73.523 268.335,71.028 264.647,71.043C261.379,71.057 259.244,72.897 258.563,76.288C258.262,77.785 258.695,79.851 259.593,81.207C261.223,83.67 264.666,84.486 267.541,83.089ZM327.932,84.871C326.82,84.475 325.869,83.561 325.292,82.337C324.862,81.424 324.821,80.914 324.755,75.678L324.684,70.008L326.364,70.146L326.474,75.637C326.591,81.465 326.618,81.617 327.753,82.835C329.226,84.414 332.64,84.014 334.277,82.072C335.493,80.631 335.581,80.19 335.7,74.979L335.809,70.146L337.457,70.01L337.457,77.162C337.457,81.096 337.481,84.388 337.512,84.479C337.542,84.569 337.196,84.674 336.743,84.712L335.919,84.78L335.919,83.791C335.919,83.247 335.819,82.741 335.697,82.665C335.575,82.589 335.033,82.969 334.494,83.508C333.906,84.096 333.099,84.63 332.48,84.841C331.227,85.268 329.085,85.282 327.932,84.871L327.932,84.871ZM344.777,84.889C343.122,84.349 341.63,83.19 341.63,82.445C341.63,82.317 341.912,82.046 342.255,81.843C342.87,81.48 342.891,81.485 343.518,82.145C344.525,83.204 345.733,83.725 347.232,83.746C348.778,83.767 349.813,83.267 350.581,82.128C351.198,81.211 351.211,80.371 350.617,79.617C349.973,78.798 349.074,78.382 346.767,77.836C343.357,77.028 342.069,75.917 342.069,73.785C342.069,71.292 344.107,69.597 347.105,69.597C348.81,69.597 350.068,69.994 351.063,70.845C352.093,71.727 352.191,72.274 351.383,72.642C350.866,72.878 350.731,72.83 349.967,72.14C348.013,70.375 344.783,70.721 343.92,72.789C343.117,74.71 344.444,75.782 348.659,76.618C351.342,77.15 352.615,78.455 352.609,80.667C352.605,82.404 351.994,83.518 350.56,84.404C349.632,84.978 349.264,85.067 347.597,85.124C346.413,85.164 345.347,85.075 344.776,84.889L344.777,84.889ZM369.499,84.849C366.091,83.8 364.078,80.691 364.302,76.824C364.421,74.771 365.34,72.676 366.611,71.56C369.351,69.155 373.941,68.945 376.537,71.107C377.341,71.776 377.355,72.244 376.585,72.657C376.235,72.844 376.027,72.788 375.529,72.373C374.047,71.136 372.582,70.751 370.778,71.125C368.341,71.631 366.722,73.266 366.08,75.868C365.526,78.111 366.163,80.496 367.736,82.069C369.888,84.22 373.401,84.357 375.521,82.373C376.173,81.763 376.602,81.836 377.091,82.643C377.283,82.961 377.189,83.145 376.561,83.675C374.892,85.084 371.886,85.584 369.499,84.849L369.499,84.849ZM176.819,84.617C176.732,84.531 176.662,79.102 176.662,72.552C176.662,59.589 176.629,59.93 177.869,60.241L178.423,60.38L178.309,84.644L177.642,84.71C177.276,84.746 176.905,84.705 176.819,84.618L176.819,84.617ZM184.946,84.617C184.86,84.531 184.789,79.102 184.789,72.552C184.789,59.589 184.756,59.93 185.996,60.241L186.55,60.38L186.437,84.644L185.77,84.71C185.403,84.746 185.032,84.705 184.946,84.618L184.946,84.617ZM278.364,78.3C278.364,73.313 278.3,71.794 278.082,71.613C277.927,71.484 277.21,71.349 276.49,71.312C275.256,71.248 275.179,71.212 275.179,70.695C275.179,70.178 275.256,70.142 276.49,70.079C277.21,70.042 277.927,69.906 278.082,69.777C278.285,69.608 278.365,68.739 278.365,66.66C278.367,63.322 278.563,62.417 279.526,61.321C280.42,60.302 281.328,59.931 282.915,59.935C284.492,59.939 284.841,60.135 284.648,60.904C284.511,61.452 284.448,61.476 283.465,61.355C282.082,61.185 281.037,61.719 280.467,62.887C279.901,64.045 279.664,69.346 280.159,69.756C280.33,69.898 281.157,70.044 281.998,70.08C283.464,70.143 283.526,70.168 283.526,70.695C283.526,71.222 283.464,71.247 281.998,71.31C281.157,71.347 280.342,71.482 280.186,71.612C279.966,71.794 279.902,73.295 279.902,78.3L279.902,84.753L278.364,84.753L278.364,78.3L278.364,78.3ZM295.823,84.492C295.763,84.334 295.739,79.212 295.77,73.111L295.827,62.018L298.828,62.018L302.943,71.464C305.55,77.446 307.172,80.909 307.366,80.909C307.561,80.909 309.181,77.446 311.787,71.464L315.901,62.018L318.782,61.888L318.782,84.752L317.029,84.752L316.972,74.831C316.931,67.805 316.844,64.886 316.671,64.828C316.532,64.782 314.983,68.081 313.069,72.498C307.599,85.126 307.774,84.752 307.353,84.752C306.962,84.752 306.925,84.673 300.489,70.05C299.243,67.219 298.106,64.863 297.961,64.815C297.761,64.748 297.685,67.087 297.642,74.685L297.585,84.642L296.759,84.71C296.228,84.754 295.894,84.676 295.823,84.491L295.823,84.492ZM357.547,84.491C357.486,84.331 357.462,81.038 357.494,77.173L357.552,70.146L359.089,70.146L359.089,84.644L358.374,84.713C357.93,84.756 357.616,84.672 357.547,84.491L357.547,84.491ZM357.353,64.508C357.161,64.233 357.003,63.854 357.003,63.666C357.003,63.478 357.161,63.099 357.353,62.824C357.851,62.113 358.955,62.241 359.412,63.062C359.714,63.604 359.714,63.728 359.412,64.27C358.955,65.091 357.851,65.219 357.353,64.508L357.353,64.508Z" style="fill:white;fill-rule:nonzero;"/>
        </g>
    </g>
</svg>
